# xmcd
# 
# Track frame offsets:
#     150
#     13937
#     34354
#     52701
#     68491
#     89321
#     110661
#     123706
#     141303
#     160498
#     174660
# 
# Disc length: 2719
# 
# Revision: 0
# Processed by: cddbd v1.5.2PL0 Copyright (c) Steve Scherf et al.
# Submitted via: fre:ac v1.0.17
# 
DISCID=9a0a9d0b
DTITLE=Tom Petty - Hypnotic eye
DYEAR=2014
DGENRE=Blues
TTITLE0=American Dream Plan B
TTITLE1=Fault lines
TTITLE2=Red River
TTITLE3=Full Grown Boy
TTITLE4=All You Can Carry
TTITLE5=Power Drunk
TTITLE6=Forgotten Man
TTITLE7=Sins Of My Youth
TTITLE8=U Get Me High
TTITLE9=Burnt Our Town
TTITLE10=Shadow People
EXTD=
EXTT0=
EXTT1=
EXTT2=
EXTT3=
EXTT4=
EXTT5=
EXTT6=
EXTT7=
EXTT8=
EXTT9=
EXTT10=
PLAYORDER=
